<?xml version="1.0" standalone="no"?>
<!DOCTYPE svg PUBLIC "-//W3C//DTD SVG 20010904//EN"
 "http://www.w3.org/TR/2001/REC-SVG-20010904/DTD/svg10.dtd">
<svg version="1.0" xmlns="http://www.w3.org/2000/svg"
 width="256.000000pt" height="256.000000pt" viewBox="0 0 256.000000 256.000000"
 preserveAspectRatio="xMidYMid meet">

<g transform="translate(0.000000,256.000000) scale(0.100000,-0.100000)"
fill="#000000" stroke="none">
<path d="M0 1934 c0 -591 1 -625 18 -620 9 3 255 69 547 146 292 78 537 144
545 148 18 10 50 4 50 -9 0 -5 -16 -9 -35 -9 -19 0 -184 -41 -367 -90 -183
-50 -429 -116 -545 -147 l-213 -58 0 -647 0 -648 1280 0 1280 0 0 685 c-1 671
-1 685 -20 685 -14 0 -18 -5 -13 -17 5 -14 1 -15 -28 -10 -98 17 -105 17 -56
1 27 -9 47 -17 45 -19 -3 -4 -114 22 -525 119 -106 25 -195 46 -199 46 -3 0
-2 5 2 12 5 8 2 9 -11 4 -25 -9 -86 4 -78 17 3 6 1 7 -6 3 -7 -5 -43 0 -81 9
-50 12 -71 22 -75 36 -4 10 -11 19 -17 19 -7 0 -6 -5 2 -15 6 -8 10 -20 8 -27
-3 -7 -13 2 -23 22 -10 19 -30 53 -45 75 -27 40 -131 233 -110 205 6 -8 39
-62 73 -120 l62 -105 90 -18 c142 -28 988 -187 997 -187 4 0 8 256 8 570 l0
570 -1280 0 -1280 0 0 -626z m1308 -41 c10 -18 9 -20 -8 -16 -20 5 -26 23 -13
36 7 8 7 9 21 -20z m-127 -186 c-10 -9 -11 -8 -5 6 3 10 9 15 12 12 3 -3 0
-11 -7 -18z m-26 -47 c-9 -16 -18 -30 -21 -30 -2 0 2 14 11 30 9 17 18 30 21
30 2 0 -2 -13 -11 -30z m-100 -177 c-34 -62 -64 -105 -54 -78 8 22 81 145 86
145 2 0 -12 -30 -32 -67z m515 -53 c11 -22 18 -40 15 -40 -2 0 -14 18 -25 40
-11 22 -18 40 -15 40 2 0 14 -18 25 -40z m-577 -55 c-3 -9 -8 -14 -10 -11 -3
3 -2 9 2 15 9 16 15 13 8 -4z m681 -130 c13 -20 14 -25 2 -25 -7 0 -16 11 -18
25 -3 14 -4 25 -3 25 2 0 10 -11 19 -25z m-729 -15 c17 -7 15 -9 -12 -9 -18
-1 -33 4 -33 9 0 12 17 12 45 0z m103 -7 c-16 -2 -40 -2 -55 0 -16 2 -3 4 27
4 30 0 43 -2 28 -4z"/>
<path d="M1718 1513 c7 -3 16 -2 19 1 4 3 -2 6 -13 5 -11 0 -14 -3 -6 -6z"/>
<path d="M1848 1483 c7 -3 16 -2 19 1 4 3 -2 6 -13 5 -11 0 -14 -3 -6 -6z"/>
<path d="M2058 1433 c7 -3 16 -2 19 1 4 3 -2 6 -13 5 -11 0 -14 -3 -6 -6z"/>
<path d="M2115 1420 c28 -12 47 -12 40 0 -3 6 -18 10 -33 9 -24 0 -25 -1 -7
-9z"/>
<path d="M2200 1400 c14 -4 32 -8 40 -9 13 -1 13 0 0 9 -8 5 -26 9 -40 9 l-25
-1 25 -8z"/>
</g>
</svg>
